<?xml version="1.0" standalone="no"?>
<!DOCTYPE svg PUBLIC "-//W3C//DTD SVG 20010904//EN"
 "http://www.w3.org/TR/2001/REC-SVG-20010904/DTD/svg10.dtd">
<svg version="1.0" xmlns="http://www.w3.org/2000/svg"
 width="648.000000pt" height="648.000000pt" viewBox="0 0 648.000000 648.000000"
 preserveAspectRatio="xMidYMid meet">

<g transform="translate(0.000000,648.000000) scale(0.100000,-0.100000)"
fill="#000000" stroke="none">
<path d="M3035 5754 c-262 -36 -399 -67 -550 -122 -154 -57 -287 -120 -279
-133 3 -5 -1 -6 -8 -4 -15 6 -190 -94 -183 -105 2 -4 -1 -7 -8 -7 -32 0 -199
-133 -335 -266 -288 -283 -502 -652 -596 -1024 -152 -602 -58 -1228 260 -1740
37 -59 70 -112 74 -117 6 -6 76 26 109 50 2 2 0 39 -4 83 l-7 80 -92 58 c-50
31 -93 58 -94 59 -2 1 1 52 8 113 l12 111 -33 27 c-18 16 -51 45 -74 65 -22
21 -43 38 -47 38 -15 0 -8 46 21 135 32 99 32 101 -23 163 -18 21 -44 53 -59
72 l-26 36 50 99 50 99 -48 96 c-26 52 -49 97 -50 100 -1 3 28 44 66 92 l69
87 -29 96 c-15 53 -31 100 -34 105 -3 5 14 26 37 48 24 21 62 56 86 78 l42 39
-11 110 c-9 90 -9 111 3 118 7 4 50 30 95 57 l81 50 6 87 c10 132 11 134 86
161 138 48 133 43 165 160 16 57 33 105 39 107 6 2 55 11 110 20 l98 17 47 99
46 98 111 1 111 0 34 42 c19 23 47 61 63 83 16 22 33 43 38 46 4 3 57 -4 116
-15 l108 -19 74 71 c41 39 82 72 91 72 16 0 129 -42 161 -60 10 -6 25 -10 33
-10 15 0 133 69 166 97 23 19 32 17 96 -25 126 -83 108 -80 215 -38 52 20 101
36 108 36 8 0 49 -33 90 -72 l74 -71 108 19 c59 11 112 18 116 15 5 -3 22 -24
38 -46 16 -22 44 -60 63 -83 l34 -42 111 0 111 0 44 -96 c29 -62 52 -99 65
-104 21 -7 186 -35 196 -33 3 1 19 -47 35 -107 32 -123 25 -115 169 -163 59
-20 70 -27 72 -48 1 -13 6 -63 9 -110 l7 -87 61 -39 c34 -22 77 -48 96 -57
l33 -18 -6 -66 c-4 -37 -9 -88 -12 -113 l-5 -45 78 -70 c43 -38 81 -72 84 -77
3 -4 -5 -40 -17 -79 -36 -109 -38 -132 -18 -164 10 -16 21 -31 24 -34 3 -3 24
-30 47 -60 l42 -55 -50 -100 -51 -99 51 -99 50 -99 -42 -55 c-23 -30 -54 -70
-69 -89 l-26 -35 24 -77 c45 -141 46 -137 -46 -212 l-80 -65 5 -50 c2 -27 7
-79 10 -115 l6 -65 -95 -57 -94 -58 -7 -81 c-4 -44 -6 -81 -4 -83 19 -14 101
-57 104 -54 26 28 140 221 184 313 236 487 289 1018 155 1548 -94 373 -309
743 -595 1023 -137 134 -304 267 -336 267 -7 0 -10 3 -8 7 8 13 -210 135 -345
192 -286 122 -514 169 -840 173 -118 2 -228 1 -245 -1z"/>
<path d="M3069 5330 c-193 -18 -415 -79 -601 -168 -103 -48 -116 -57 -105 -71
10 -14 10 -14 -5 -3 -15 12 -27 7 -90 -34 -40 -26 -93 -63 -118 -82 -131 -99
-306 -274 -294 -294 4 -6 3 -8 -3 -5 -14 9 -47 -29 -38 -43 3 -6 1 -9 -6 -8
-17 4 -132 -171 -194 -297 -190 -388 -234 -808 -130 -1248 45 -193 164 -446
294 -624 l31 -42 62 23 c65 25 264 89 308 100 14 4 68 18 120 31 136 35 330
70 505 91 208 25 660 25 865 0 304 -37 562 -95 843 -190 l158 -54 31 42 c227
312 348 688 348 1076 -1 281 -59 535 -182 789 -64 130 -184 315 -200 305 -7
-5 -8 -3 -4 5 10 15 -23 53 -37 44 -6 -3 -7 -1 -3 5 4 7 -20 40 -56 79 -162
174 -317 288 -543 398 -300 146 -619 205 -956 175z m206 -219 l28 -60 70 -11
69 -12 -50 -52 -50 -51 11 -57 c6 -32 8 -60 5 -63 -3 -3 -31 6 -62 22 l-56 27
-56 -27 c-31 -16 -59 -26 -61 -23 -3 3 -1 31 5 63 l10 58 -50 51 -50 52 69 12
70 11 28 60 c16 32 32 59 35 59 3 0 19 -27 35 -59z m-522 -205 c16 -3 40 -6
53 -6 33 0 30 -10 -14 -53 -39 -38 -39 -38 -29 -88 9 -47 4 -75 -11 -54 -4 6
-23 19 -43 29 l-36 19 -48 -27 c-27 -14 -50 -24 -53 -22 -2 3 1 28 8 57 l13
52 -37 31 c-20 18 -36 37 -36 43 0 6 23 13 50 17 48 6 51 9 76 59 l27 52 25
-52 c20 -40 31 -52 55 -57z m1082 54 c24 -47 27 -50 75 -56 27 -4 50 -11 50
-17 0 -6 -16 -25 -36 -42 l-36 -32 11 -53 c6 -29 10 -55 8 -57 -2 -2 -25 9
-51 23 l-47 27 -40 -19 c-21 -11 -39 -22 -39 -26 0 -5 -5 -8 -10 -8 -7 0 -9
20 -5 58 7 56 6 58 -29 91 -42 41 -45 51 -12 51 64 0 83 11 106 61 13 27 25
49 27 49 1 0 14 -22 28 -50z m-1597 -304 c16 -27 29 -35 62 -41 l42 -7 -32
-33 c-28 -28 -31 -37 -25 -69 8 -41 6 -42 -36 -20 -28 14 -33 14 -70 -4 l-40
-20 6 42 c6 36 3 44 -19 65 -35 33 -33 40 13 47 31 5 41 13 54 40 9 19 19 34
21 34 2 0 13 -15 24 -34z m2051 -5 c10 -23 21 -30 52 -35 46 -7 48 -14 13 -47
-22 -21 -25 -29 -19 -65 l6 -42 -40 20 -41 20 -36 -21 -37 -22 7 42 c6 38 4
45 -25 75 l-31 32 44 7 c39 6 48 12 62 41 18 39 28 38 45 -5z m-1014 -493 c-4
-22 -45 -229 -45 -232 0 0 -198 -1 -440 -1 l-440 0 -25 -25 c-34 -35 -51 -124
-30 -157 l15 -23 386 0 c422 0 428 -1 459 -60 21 -41 20 -55 -25 -304 -43
-241 -60 -287 -117 -326 l-37 -25 -543 -3 c-435 -2 -543 0 -543 10 0 7 9 62
20 122 11 60 20 113 20 118 0 4 199 8 443 8 332 1 446 4 458 13 24 19 37 49
45 105 11 87 35 82 -405 82 -370 0 -387 1 -419 20 -18 11 -40 37 -48 56 -14
34 -13 51 26 268 22 127 45 245 50 262 12 35 63 88 100 103 15 6 232 10 563
10 l537 1 -5 -22z m1285 6 c0 -18 -29 -179 -39 -212 l-6 -23 -422 1 c-464 0
-479 -1 -501 -56 -13 -35 -102 -522 -102 -562 0 -15 5 -33 12 -40 9 -9 124
-12 455 -12 244 0 443 -3 443 -7 0 -8 -41 -223 -46 -240 -3 -10 -118 -13 -534
-13 -572 0 -568 0 -604 52 -21 30 -20 79 4 207 10 58 44 248 75 421 31 173 60
333 66 355 6 22 11 48 12 57 1 9 4 15 8 13 3 -3 15 5 25 17 11 11 33 29 49 39
28 18 62 19 568 19 481 0 537 -2 537 -16z"/>
<path d="M3012 1980 c-63 -5 -148 -14 -190 -20 -113 -15 -352 -62 -352 -69 0
-3 39 -22 88 -43 430 -179 953 -176 1388 10 35 15 64 30 64 33 0 9 -264 59
-400 74 -160 19 -453 26 -598 15z"/>
<path d="M2008 1741 c-38 -14 -68 -28 -68 -31 0 -3 51 -37 113 -77 126 -81
298 -165 432 -213 148 -52 375 -105 465 -109 8 -1 49 -5 90 -10 367 -46 835
42 1203 225 74 37 297 175 297 184 0 3 -28 16 -62 30 -35 14 -65 26 -69 28 -3
1 -13 -13 -22 -32 l-16 -35 -113 -3 -112 -3 -54 -70 c-88 -115 -73 -106 -134
-90 -29 8 -78 17 -109 21 l-57 6 -72 -68 c-39 -38 -76 -71 -81 -72 -5 -2 -50
12 -99 32 -50 20 -97 36 -105 36 -8 0 -55 -25 -105 -56 l-90 -56 -91 57 c-100
64 -92 63 -214 16 -44 -17 -84 -31 -89 -31 -4 0 -41 32 -82 71 l-73 72 -58 -7
c-32 -4 -82 -13 -111 -21 -61 -16 -46 -25 -134 90 l-54 70 -113 5 -113 5 -16
31 -17 32 -67 -27z"/>
<path d="M2690 845 c0 -11 -12 -15 -50 -15 -38 0 -50 -4 -50 -15 0 -12 14 -15
65 -15 l65 0 0 30 c0 20 -5 30 -15 30 -8 0 -15 -7 -15 -15z"/>
<path d="M4604 845 c-8 -20 4 -35 26 -35 23 0 32 13 24 34 -8 20 -43 21 -50 1z
m36 -15 c0 -5 -2 -10 -4 -10 -3 0 -8 5 -11 10 -3 6 -1 10 4 10 6 0 11 -4 11
-10z"/>
<path d="M1724 834 c3 -9 6 -18 6 -20 0 -2 23 -4 50 -4 37 0 50 4 50 15 0 10
-9 14 -30 11 -17 -2 -33 0 -36 5 -3 5 -14 9 -26 9 -14 0 -18 -5 -14 -16z"/>
<path d="M3007 843 c-13 -12 -7 -43 8 -43 8 0 15 5 15 10 0 6 9 10 20 10 11 0
20 7 20 15 0 15 -50 22 -63 8z"/>
<path d="M4020 844 c0 -15 31 -34 55 -34 27 0 27 -1 20 -52 -9 -71 -18 -77
-34 -22 -7 24 -19 43 -25 41 -6 -2 -18 -24 -28 -48 -18 -48 -15 -51 -33 36 -6
28 -35 35 -35 8 0 -16 7 -51 25 -130 7 -32 33 -29 45 5 26 70 26 70 41 23 12
-40 32 -61 45 -48 3 3 16 53 28 112 l23 106 -38 -6 c-22 -4 -40 -2 -44 4 -6
11 -45 16 -45 5z"/>
<path d="M4902 834 c2 -15 13 -20 56 -22 42 -2 52 0 52 12 0 10 -9 16 -24 16
-13 0 -38 3 -56 6 -28 6 -32 4 -28 -12z"/>
<path d="M3431 763 l-14 -78 -20 48 c-11 26 -23 47 -27 47 -5 0 -14 -17 -20
-37 -19 -58 -27 -59 -34 -4 -6 43 -10 51 -27 51 -13 0 -19 -5 -16 -12 2 -7 10
-46 17 -85 11 -59 17 -73 31 -73 13 0 22 13 30 40 7 22 16 40 20 40 5 0 14
-18 20 -40 9 -28 18 -40 31 -40 10 0 18 4 18 8 0 5 9 51 20 102 24 114 24 110
2 110 -15 0 -21 -14 -31 -77z"/>
<path d="M1480 815 c0 -12 14 -15 65 -15 51 0 65 3 65 15 0 12 -14 15 -65 15
-51 0 -65 -3 -65 -15z"/>
<path d="M2160 815 c0 -12 14 -15 65 -15 51 0 65 3 65 15 0 12 -14 15 -65 15
-51 0 -65 -3 -65 -15z"/>
<path d="M1300 722 c0 -84 13 -102 71 -102 60 0 79 25 79 106 0 57 -2 65 -17
62 -14 -3 -19 -15 -21 -63 -3 -64 -18 -87 -53 -78 -21 6 -27 24 -31 92 -2 25
-9 46 -15 49 -10 3 -13 -15 -13 -66z"/>
<path d="M1496 777 c-31 -23 -17 -59 32 -82 23 -11 42 -25 42 -31 0 -16 -40
-25 -61 -13 -25 13 -29 12 -29 -11 0 -17 7 -20 49 -20 48 0 81 17 81 41 0 24
-22 48 -49 54 -38 8 -60 32 -37 41 9 3 27 3 40 0 16 -4 26 -1 29 8 10 25 -66
35 -97 13z"/>
<path d="M1640 727 c0 -83 16 -107 74 -107 48 0 76 22 76 58 0 12 5 22 10 22
6 0 10 7 10 15 0 8 -4 15 -10 15 -5 0 -10 14 -10 31 0 24 -4 30 -17 27 -10 -2
-19 -10 -19 -18 -1 -8 -2 -21 -3 -27 0 -7 -8 -13 -16 -13 -8 0 -15 -7 -15 -15
0 -8 7 -15 15 -15 24 0 19 -47 -5 -55 -36 -11 -50 12 -50 81 0 57 -2 64 -20
64 -18 0 -20 -7 -20 -63z"/>
<path d="M1840 705 c0 -69 3 -85 15 -85 11 0 15 13 15 54 0 61 18 89 54 84 19
-3 21 -10 24 -70 3 -60 5 -68 22 -68 17 0 20 7 20 54 0 30 -4 66 -10 80 -11
30 -51 43 -86 27 -15 -6 -24 -7 -24 -1 0 6 -7 10 -15 10 -12 0 -15 -16 -15
-85z"/>
<path d="M2130 773 c0 -13 12 -17 38 -14 17 3 15 -6 -8 -29 -24 -24 -26 -57
-4 -88 18 -27 84 -31 108 -6 17 17 21 70 7 93 -6 9 -4 23 6 38 12 19 13 23 2
23 -20 0 -34 -12 -48 -38 -11 -20 -10 -26 5 -37 15 -11 17 -18 9 -42 -14 -39
-52 -44 -61 -7 -4 16 -2 34 5 43 21 29 24 44 14 60 -12 19 -73 22 -73 4z"/>
<path d="M2320 721 c0 -89 10 -101 91 -100 l60 1 -3 82 c-2 63 -6 81 -18 81
-11 0 -14 -14 -15 -58 -2 -65 -20 -93 -53 -82 -18 5 -22 16 -24 73 -2 54 -6
67 -20 70 -16 3 -18 -5 -18 -67z"/>
<path d="M2517 783 c-4 -3 -7 -42 -7 -85 0 -63 3 -78 15 -78 12 0 15 16 15 85
0 78 -5 96 -23 78z"/>
<path d="M2583 783 c-39 -8 -26 -29 15 -24 17 3 15 -6 -8 -29 -24 -24 -26 -57
-4 -88 18 -27 84 -31 108 -6 18 18 21 75 5 91 -8 8 -6 18 6 37 15 23 16 26 2
26 -19 0 -57 -38 -57 -56 0 -6 7 -14 15 -18 35 -13 4 -83 -32 -72 -29 9 -35
41 -12 70 10 13 19 30 19 38 0 14 -20 39 -29 37 -4 -1 -16 -4 -28 -6z"/>
<path d="M2766 775 c-19 -19 -20 -29 -6 -55 7 -13 7 -21 0 -25 -15 -9 -12 -42
6 -59 21 -22 97 -21 115 1 9 10 14 41 14 82 0 55 -3 66 -17 69 -16 3 -18 -5
-18 -61 0 -70 -14 -93 -50 -82 -27 8 -27 45 0 45 27 0 26 28 -2 32 -29 4 -35
28 -9 35 12 3 20 11 18 17 -6 18 -33 18 -51 1z"/>
<path d="M2946 777 c-31 -23 -17 -59 32 -82 23 -11 42 -25 42 -31 0 -17 -38
-24 -66 -14 -20 8 -24 6 -24 -10 0 -17 7 -20 50 -20 41 0 52 4 65 24 22 34 7
59 -45 75 -50 15 -48 37 4 34 25 -2 36 2 36 11 0 27 -63 35 -94 13z"/>
<path d="M3226 783 c-3 -3 -6 -42 -6 -85 0 -63 3 -78 15 -78 12 0 15 15 15 79
0 74 -7 100 -24 84z"/>
<path d="M3522 783 c-43 -17 -33 -76 15 -88 30 -7 53 -23 53 -35 0 -12 -44
-17 -68 -9 -18 7 -22 5 -22 -11 0 -17 7 -20 49 -20 54 0 74 15 69 52 -2 16
-16 29 -45 43 -57 26 -58 50 -3 41 31 -5 40 -3 40 8 0 22 -52 34 -88 19z"/>
<path d="M3650 775 c0 -8 7 -15 15 -15 8 0 15 -4 15 -9 0 -5 -7 -14 -15 -21
-21 -17 -19 -73 3 -93 25 -23 85 -22 105 1 18 20 23 87 7 97 -6 4 -4 16 6 31
16 23 15 24 -5 24 -13 0 -26 -11 -36 -31 -15 -28 -15 -32 0 -43 34 -25 0 -88
-39 -73 -20 8 -21 60 -1 77 21 17 19 47 -4 60 -28 15 -51 12 -51 -5z"/>
<path d="M4212 780 c-29 -12 -45 -55 -38 -100 6 -39 28 -60 63 -60 29 0 31 28
1 32 -47 7 -38 99 10 106 39 6 52 -15 52 -79 0 -53 2 -59 21 -59 20 0 21 4 17
65 -2 40 -10 71 -19 80 -19 20 -77 28 -107 15z"/>
<path d="M4508 779 c-10 -5 -18 -17 -18 -24 0 -18 2 -18 35 -3 40 18 75 -3 75
-45 0 -57 -43 -79 -55 -28 -7 33 -25 44 -46 29 -10 -7 -11 -11 -2 -14 7 -3 17
-21 23 -40 9 -27 17 -34 36 -34 59 0 94 55 74 115 -16 47 -79 70 -122 44z"/>
<path d="M4682 779 c-13 -5 -22 -14 -20 -20 4 -12 7 -12 43 -3 40 10 55 -11
55 -77 0 -46 3 -59 15 -59 12 0 15 14 15 65 0 92 -36 124 -108 94z"/>
<path d="M4852 774 c-19 -13 -22 -24 -22 -85 0 -55 3 -69 15 -69 15 0 16 8 19
110 1 22 6 25 36 25 l35 0 3 -67 c2 -57 6 -68 20 -68 15 0 18 11 20 60 2 53
-1 64 -22 85 -29 29 -71 33 -104 9z"/>
<path d="M5036 759 c-35 -42 -31 -105 8 -131 20 -14 66 -9 66 7 0 9 -9 15 -25
15 -48 0 -45 101 3 108 39 6 52 -15 52 -79 0 -53 2 -59 21 -59 19 0 20 4 16
67 -3 54 -9 70 -27 85 -35 29 -84 23 -114 -13z"/>
<path d="M4030 589 c0 -15 47 -59 63 -59 21 0 35 15 42 43 6 21 4 27 -10 27
-9 0 -19 -9 -22 -20 -3 -11 -9 -20 -14 -20 -5 0 -9 9 -9 20 0 15 -7 20 -25 20
-14 0 -25 -5 -25 -11z"/>
</g>
</svg>
